<svg xmlns="http://www.w3.org/2000/svg" viewBox="0 0 160 160">
  <rect width="160" height="160" rx="80" fill="#364b3d"/>
  <circle cx="80" cy="72" r="37" fill="#e7b98f"/>
  <path d="M45 64c4-28 22-43 47-39 18 3 30 17 32 40-20-11-49-12-79-1Z" fill="#171717"/>
  <path d="M43 65c-4 23 0 40 12 52-2-19 0-35 7-49Z" fill="#171717"/>
  <circle cx="67" cy="78" r="4" fill="#171717"/>
  <circle cx="94" cy="78" r="4" fill="#171717"/>
  <path d="M68 98c8 7 18 7 26 0" fill="none" stroke="#9d4b45" stroke-width="5" stroke-linecap="round"/>
  <path d="M33 150c9-28 26-45 47-45s38 17 47 45" fill="#c05674"/>
</svg>
